# xmcd CD database file
#
# Track frame offsets:
#	150
#	35102
#	64680
#	82670
#	108625
#	123352
#	143427
#	166510
#	184360
#	203607
#
# Disc length: 3221 seconds
#
# Revision: 0
# Processed by: cddbd v1.4PL0 Copyright (c) Steve Scherf et al.
# Submitted via: CDex 1.50beta9
#
DISCID=7c0c930a
DTITLE=Nanette Natal - Lose Control
DYEAR=1999
DGENRE=Jazz
TTITLE0=Ice Fire
TTITLE1=Wild In Reverie
TTITLE2=Sweet Vanities
TTITLE3=Gone The Midnight Sun
TTITLE4=Be Bop A Lu La
TTITLE5=Hi Fi Baby
TTITLE6=Runaways
TTITLE7=Waiting
TTITLE8=Blue Suede Shoes
TTITLE9=Lose Control
EXTD=YEAR: 1999
EXTT0=
EXTT1=
EXTT2=
EXTT3=
EXTT4=
EXTT5=
EXTT6=
EXTT7=
EXTT8=
EXTT9=
PLAYORDER=
